<?xml version="1.0" encoding="utf-8"?>
<!-- Generator: Adobe Illustrator 25.0.0, SVG Export Plug-In . SVG Version: 6.00 Build 0)  -->
<svg version="1.1" id="Layer_1" xmlns="http://www.w3.org/2000/svg" xmlns:xlink="http://www.w3.org/1999/xlink" x="0px" y="0px"
	 viewBox="0 0 1000 476.4" style="enable-background:new 0 0 1000 476.4;" xml:space="preserve">
<g>
	<g>
		<path d="M216.2,321.1c29.7,0,59.5,0,89.4,0c-2-5.6-4.1-10.8-5.8-16.1c-1.8-5.4-3.3-10.9-4.7-16.4c-0.5-2-1.3-2.7-3.5-2.7
			c-36.4,0.1-72.7,0-109.1,0.1c-1.8,0-3-0.4-4.3-1.7c-8.6-8.7-17.2-17.3-25.9-25.9c-0.6-0.6-1.2-1.3-2.2-2.4c46.7,0,92.9,0,139.1,0
			c0-11.9,0-23.5,0-35.5c-1,0-2.1,0-3.3,0c-56.1,0-112.2,0-168.4,0c-2.2,0-3.7-0.5-5.2-2.1c-8.5-8.6-17.1-17.2-25.6-25.7
			c-0.5-0.5-1-1-1.9-2.1c1.8,0,3,0,4.3,0c67.3,0,134.7,0,202,0.1c2.8,0,3.5-1,4.2-3.5c3-9.8,6.3-19.4,9.5-29.1
			c0.2-0.8,0.5-1.5,1-2.7c-1.4,0-2.6,0-3.7,0c-83.1,0-166.2,0-249.3,0c-2.4,0-4.1-0.7-5.7-2.4c-8.6-8.7-17.2-17.3-25.8-25.9
			c-0.4-0.4-0.8-0.9-1.7-1.8c1.6,0,2.6,0,3.6,0c98.5,0,197,0,295.5,0.1c2.2,0,3.6-0.6,4.8-2.5c18.5-28.2,42.4-50.6,71.5-67.5
			c19.6-11.3,40.4-19.2,62.5-23.8c19.3-4,38.7-5,58.4-3.6c29.8,2.1,57.9,10.3,84.2,24.6c20.9,11.4,39.9,25.4,55.5,43.5
			c7.6,8.9,14.5,18.4,21.6,27.7c1.1,1.4,2.2,1.6,3.7,1.6c34.7,0,69.4,0,104.1,0c63.9,0,127.7,0,191.6,0c1.1,0,2.2,0,4,0
			c-3.1,3.2-5.8,5.9-8.6,8.6c-6.4,6.4-12.8,12.7-19.1,19.2c-1.6,1.7-3.3,2.4-5.7,2.4c-83.1-0.1-166.2-0.1-249.3-0.1
			c-1.1,0-2.2,0-3.6,0c1.6,4.2,3.2,8.1,4.5,12.1c2.2,6.8,4.4,13.6,6.2,20.5c0.6,2.2,1.4,2.7,3.4,2.7c50.7,0,101.5,0,152.2,0
			c17,0,34.1,0,51.1,0c0.9,0,1.8,0,2.7,0c0.2,0.3,0.5,0.6,0.7,0.9c-1.9,1.6-3.9,3.1-5.6,4.9c-7.4,7.4-14.9,14.8-22.2,22.2
			c-1.4,1.4-2.8,1.9-4.8,1.9c-56,0-112.1,0-168.1,0c-1.2,0-2.3,0-3.6,0c0,11.8,0,23.4,0,35.3c46,0,92.1,0,139.1,0
			c-2.4,2.5-4.3,4.5-6.2,6.4c-7.3,7.3-14.7,14.6-22,22c-1.3,1.4-2.7,1.8-4.5,1.8c-36.2-0.1-72.3,0-108.5-0.1c-2.3,0-3.1,0.5-3.8,2.9
			c-3.1,10.8-6.6,21.4-10.1,32.4c29.4,0,59.2,0,89,0c0.2,0.3,0.4,0.7,0.6,1c-3.9,3.7-7.9,7.4-11.8,11.2
			c-5.5,5.3-10.8,10.8-16.3,16.1c-1,0.9-2.6,1.6-4,1.6c-23.4,0.1-46.8,0.1-70.2,0c-2.6,0-4.2,0.7-5.7,3
			c-29.6,44-69.9,73.5-121.1,87.8c-20.6,5.7-41.7,7.9-63.1,7.1c-33.6-1.1-65-9.9-94.2-26.2c-20.5-11.4-39-25.4-54.3-43.3
			c-7.3-8.5-13.9-17.7-20.7-26.7c-1.2-1.5-2.4-1.6-4-1.6c-23.5,0-47,0-70.5,0.1c-2.3,0-3.9-0.7-5.5-2.3c-8.2-8.4-16.6-16.6-24.9-25
			c-0.7-0.7-1.4-1.4-2-2.1C216.1,321.6,216.1,321.4,216.2,321.1z M681.1,238.2c0.4-97.7-78.9-181-181-181
			c-100.7,0-180.9,81.2-181.2,180.4c-0.3,100.6,81.2,181.6,181,181.7C600.9,419.4,681.5,336.7,681.1,238.2z"/>
		<path d="M407.7,266.5c1-2.9,1.8-5.1,2.5-7.3c7-22,14-43.9,20.8-66c0.6-1.9,1.3-2.6,3.3-2.6c8.2,0.1,16.4,0.1,24.8,0.1
			c0,31.8,0,63.4,0,95.1c-6.2,0-12.2,0-18.6,0c0-22.7,0-45.3,0-67.9c-0.3-0.1-0.5-0.2-0.8-0.2c-0.4,0.9-0.9,1.7-1.2,2.6
			c-5.5,17.5-11.1,35-16.6,52.4c-1.1,3.5-2.3,7.1-3.3,10.7c-0.5,1.9-1.4,2.8-3.6,2.7c-5.1-0.2-10.2-0.2-15.3,0
			c-2.1,0.1-2.8-0.7-3.4-2.6c-6.4-20.1-12.9-40.1-19.3-60.1c-0.7-2.2-1.5-4.5-2.3-6.7c-0.3,0.1-0.5,0.1-0.8,0.2c0,22.9,0,45.9,0,69
			c-6.2,0-12.1,0-18.1,0c0-31.6,0-63.2,0-95c4.6,0,9.1,0,13.7,0c3.6,0,7.1,0.1,10.7-0.1c2.3-0.1,3.3,0.7,4,2.9
			c5.6,17.8,11.3,35.5,16.9,53.2c1.8,5.7,3.6,11.4,5.5,17.1C406.8,264.6,407.1,265.1,407.7,266.5z"/>
		<path d="M584.1,258.5c0-22.4,0-44.8,0-67.5c6.3,0,12.3,0,18.8,0c0,0.8,0,1.7,0,2.6c0,29.8,0,59.5,0.1,89.3c0,2.5-0.7,3.2-3.2,3.2
			c-5.6-0.2-11.3-0.2-16.9,0c-2.3,0.1-3.4-0.8-4.5-2.6c-9.3-17.1-18.8-34.1-28.2-51.1c-2.3-4.2-4.6-8.4-7-12.7
			c-0.3-0.5-0.7-0.9-1.6-2c0,23.2,0,45.6,0,68.3c-6,0-11.7,0-17.5-0.1c-0.4,0-1-0.8-1.2-1.4c-0.2-0.6-0.1-1.3-0.1-1.9
			c0-29.6,0-59.2,0-88.8c0-0.9,0-1.8,0-3.1c2.8,0,5.4,0,8,0c4.2,0,8.4,0.1,12.6,0c1.9-0.1,2.9,0.7,3.8,2.3
			c11.4,20.9,22.9,41.8,34.4,62.6c0.6,1,1.2,2.1,1.8,3.1C583.7,258.6,583.9,258.6,584.1,258.5z"/>
		<path d="M625,190.7c6,0,11.9,0,17.8,0.1c0.6,0,1.1,1,1.6,1.6c0.1,0.1,0,0.4,0,0.5c0,30.3,0,60.6,0,91c0,1.2-0.2,2.1-1.7,2.1
			c-5.8,0-11.6,0-17.7,0C625,254.3,625,222.7,625,190.7z"/>
		<path d="M481.6,285.7c0-31.7,0-63.1,0-94.8c6.3,0,12.6,0,19,0c0,31.5,0,63.1,0,94.8C494.3,285.7,488.1,285.7,481.6,285.7z"/>
	</g>
</g>
</svg>
